ModelForces
version=1
nRows=4
nColumns=158
inDegrees=no

This file contains the forces exerted on a model during a simulation.

A force is a generalized force, meaning that it can be either a force (N) or a torque (Nm).

Units are S.I. units (second, meters, Newtons, ...)
Angles are in degrees.

endheader
time	glut_med1_r	glut_med2_r	glut_med3_r	glut_min1_r	glut_min2_r	glut_min3_r	semimem_r	semiten_r	bifemlh_r	bifemsh_r	sar_r	add_long_r	add_brev_r	add_mag1_r	add_mag2_r	add_mag3_r	tfl_r	pect_r	grac_r	glut_max1_r	glut_max2_r	glut_max3_r	iliacus_r	psoas_r	quad_fem_r	gem_r	peri_r	rect_fem_r	vas_med_r	vas_int_r	vas_lat_r	med_gas_r	lat_gas_r	soleus_r	tib_post_r	flex_dig_r	flex_hal_r	tib_ant_r	per_brev_r	per_long_r	per_tert_r	ext_dig_r	ext_hal_r	glut_med1_l	glut_med2_l	glut_med3_l	glut_min1_l	glut_min2_l	glut_min3_l	semimem_l	semiten_l	bifemlh_l	bifemsh_l	sar_l	add_long_l	add_brev_l	add_mag1_l	add_mag2_l	add_mag3_l	tfl_l	pect_l	grac_l	glut_max1_l	glut_max2_l	glut_max3_l	iliacus_l	psoas_l	quad_fem_l	gem_l	peri_l	rect_fem_l	vas_med_l	vas_int_l	vas_lat_l	med_gas_l	lat_gas_l	soleus_l	tib_post_l	flex_dig_l	flex_hal_l	tib_ant_l	per_brev_l	per_long_l	per_tert_l	ext_dig_l	ext_hal_l	ercspn_r	ercspn_l	intobl_r	intobl_l	extobl_r	extobl_l	femur_lat_meniscii_r.femur_lat_r.force.X	femur_lat_meniscii_r.femur_lat_r.force.Y	femur_lat_meniscii_r.femur_lat_r.force.Z	femur_lat_meniscii_r.femur_lat_r.torque.X	femur_lat_meniscii_r.femur_lat_r.torque.Y	femur_lat_meniscii_r.femur_lat_r.torque.Z	femur_lat_meniscii_r.meniscus_lat_r.force.X	femur_lat_meniscii_r.meniscus_lat_r.force.Y	femur_lat_meniscii_r.meniscus_lat_r.force.Z	femur_lat_meniscii_r.meniscus_lat_r.torque.X	femur_lat_meniscii_r.meniscus_lat_r.torque.Y	femur_lat_meniscii_r.meniscus_lat_r.torque.Z	femur_med_meniscii_r.femur_med_r.force.X	femur_med_meniscii_r.femur_med_r.force.Y	femur_med_meniscii_r.femur_med_r.force.Z	femur_med_meniscii_r.femur_med_r.torque.X	femur_med_meniscii_r.femur_med_r.torque.Y	femur_med_meniscii_r.femur_med_r.torque.Z	femur_med_meniscii_r.meniscus_med_r.force.X	femur_med_meniscii_r.meniscus_med_r.force.Y	femur_med_meniscii_r.meniscus_med_r.force.Z	femur_med_meniscii_r.meniscus_med_r.torque.X	femur_med_meniscii_r.meniscus_med_r.torque.Y	femur_med_meniscii_r.meniscus_med_r.torque.Z	femur_med_tibia_r.tibia_upper_r.force.X	femur_med_tibia_r.tibia_upper_r.force.Y	femur_med_tibia_r.tibia_upper_r.force.Z	femur_med_tibia_r.tibia_upper_r.torque.X	femur_med_tibia_r.tibia_upper_r.torque.Y	femur_med_tibia_r.tibia_upper_r.torque.Z	femur_med_tibia_r.femur_med_r.force.X	femur_med_tibia_r.femur_med_r.force.Y	femur_med_tibia_r.femur_med_r.force.Z	femur_med_tibia_r.femur_med_r.torque.X	femur_med_tibia_r.femur_med_r.torque.Y	femur_med_tibia_r.femur_med_r.torque.Z	femur_lat_tibia_r.tibia_upper_r.force.X	femur_lat_tibia_r.tibia_upper_r.force.Y	femur_lat_tibia_r.tibia_upper_r.force.Z	femur_lat_tibia_r.tibia_upper_r.torque.X	femur_lat_tibia_r.tibia_upper_r.torque.Y	femur_lat_tibia_r.tibia_upper_r.torque.Z	femur_lat_tibia_r.femur_lat_r.force.X	femur_lat_tibia_r.femur_lat_r.force.Y	femur_lat_tibia_r.femur_lat_r.force.Z	femur_lat_tibia_r.femur_lat_r.torque.X	femur_lat_tibia_r.femur_lat_r.torque.Y	femur_lat_tibia_r.femur_lat_r.torque.Z	aACL_R	pACL_R	aPCL_R	pPCL_R	aMCL_R	mMCL_R	pMCL_R	aLCL_R	mLCL_R	pLCL_R	aPCL_L	pPCL_L	aMCL_L	aLCL_L	ground_prescribedForce_0_fx	ground_prescribedForce_0_fy	ground_prescribedForce_0_fz
      0.50861585	      7.59068949	      5.69520000	      6.09662834	      2.67216681	      3.19325749	      3.21078328	      8.67300776	      4.09715052	      7.85215580	      7.28718742	      0.00000000	      5.64279601	      0.00000000	      2.93398268	      2.46668380	      4.01079030	      3.92043430	      2.24992462	      1.56103611	      3.67505957	      5.58494354	      4.16941684	     22.70099344	     13.02688590	      3.64511431	      2.86294585	      4.12464552	     10.73244613	      6.56231663	      6.64933337	      8.22583134	      4.47797635	      2.23455644	      8.76445130	     11.07237305	      2.71448251	      2.00159127	     15.34255960	      3.84926777	      7.54451536	     10.77430568	      8.36956658	      2.31100630	      7.59068949	      5.69520000	      6.09662834	      2.67216681	      3.19325749	      3.21078328	      8.80755203	      4.10613297	      7.73471645	      7.25273334	      1.52727099	      5.64279601	      0.00000000	      2.93398268	      2.46668380	      4.01079030	      4.11144961	      2.24992462	      1.56655719	      3.67505957	      5.58494354	      4.16941684	     22.70099344	     13.02688590	      3.64511431	      2.86294585	      4.12464552	     10.73774545	      6.62772976	      7.60331496	      8.17539264	     14.11117010	      6.55227014	     31.34929176	     42.46195162	      2.75648436	      2.93593970	      8.50489457	      4.36590602	     12.52441858	      2.01519805	      5.31892951	      1.68976777	     25.13130861	     25.13130861	      9.04904572	      9.04904572	     26.84866426	     26.84866426	     34.35936140	     78.35620379	      6.22383132	     -4.55283620	      0.86342914	     14.41075211	    -34.35936140	    -78.35620379	     -6.22383132	      2.56227829	     -1.04302399	     -1.16060688	     42.32947675	     78.70497983	      6.03280582	     -0.79126232	     -0.95289051	     17.96644982	    -42.32947675	    -78.70497983	     -6.03280582	     -1.12402636	      0.73235648	     -1.65060988	     -1.33677455	    -10.95873105	      3.64716373	     -0.24167080	     -0.02969470	     -0.17802050	      1.33677455	     10.95873105	     -3.64716373	      1.70088355	      0.02442104	      0.69701169	      0.00000000	      0.00000000	      0.00000000	      0.00000000	      0.00000000	      0.00000000	      0.00000000	      0.00000000	      0.00000000	      0.00000000	      0.00000000	      0.00000000	     19.63188147	     42.57638617	      0.00000000	      0.00000000	      0.00000000	      2.49121391	     42.65065988	      0.46150518	      0.00000000	      0.72231836	      0.00000000	      0.00000000	      0.00000001	      0.00000000	    110.00000000	      0.00000000	      0.00000000
      0.50959621	      7.59012265	      5.69480951	      6.09620514	      2.67199136	      3.19306771	      3.21054400	      8.67357214	      4.09738708	      7.84990520	      7.28841223	      0.00000000	      5.64240460	      0.00000000	      2.93378299	      2.46651192	      4.01048069	      3.92009789	      2.24977596	      1.56158675	      3.67480780	      5.58455976	      4.16912508	     22.70028539	     13.02608965	      3.64486979	      2.86283139	      4.12419020	     10.73193854	      6.56458002	      6.65037311	      8.22629794	      4.49080306	      2.24182488	      8.78669427	     11.07966956	      2.71588654	      1.99067824	     15.34699870	      3.85138779	      7.55712953	     10.77822438	      8.40504565	      2.31675038	      7.59012265	      5.69480951	      6.09620514	      2.67199136	      3.19306771	      3.21054400	      8.80672633	      4.10582928	      7.73402946	      7.25224650	      1.52717117	      5.64240460	      0.00000000	      2.93378299	      2.46651192	      4.01048069	      4.11125813	      2.24977596	      1.56645303	      3.67480780	      5.58455976	      4.16912508	     22.70028539	     13.02608965	      3.64486979	      2.86283139	      4.12419020	     10.73681046	      6.62726496	      7.60277145	      8.17481120	     14.10914145	      6.55132667	     31.34583951	     42.46059988	      2.75568403	      2.93538992	      8.50419102	      4.36548442	     12.52340239	      2.01507453	      5.31869386	      1.68970135	     25.12965483	     25.12965483	      9.04839723	      9.04839723	     26.84808176	     26.84808176	     34.35556231	     78.28593562	      6.21479302	     -4.54719817	      0.86327831	     14.40896968	    -34.35556231	    -78.28593562	     -6.21479302	      2.55971163	     -1.04283091	     -1.16031271	     42.34394122	     78.70399524	      6.02352467	     -0.78732800	     -0.95323455	     17.97263963	    -42.34394122	    -78.70399524	     -6.02352467	     -1.12443949	      0.73265320	     -1.65123165	     -1.33489808	    -10.93889718	      3.64117693	     -0.24126456	     -0.02964160	     -0.17771817	      1.33489808	     10.93889718	     -3.64117693	      1.69806708	      0.02437566	      0.69597896	      0.00000000	      0.00000000	      0.00000000	      0.00000000	      0.00000000	      0.00000000	      0.00000000	      0.00000000	      0.00000000	      0.00000000	      0.00000000	      0.00000000	     19.66157079	     42.61179091	      0.00000000	      0.00000000	      0.00000000	      2.52499544	     42.68420468	      0.48576685	      0.00000000	      0.74770542	      0.00000000	      0.00000000	      0.00000001	      0.00000000	    110.00000000	      0.00000000	      0.00000000
      0.51008640	      7.58984191	      5.69461611	      6.09599554	      2.67190447	      3.19297371	      3.21042549	      8.67403687	      4.09758017	      7.84889417	      7.28910032	      0.00000000	      5.64221075	      0.00000000	      2.93368408	      2.46642678	      4.01032735	      3.91995953	      2.24970233	      1.56180144	      3.67468310	      5.58436968	      4.16898058	     22.69993471	     13.02569528	      3.64474868	      2.86277470	      4.12396466	     10.73188148	      6.56603116	      6.65135994	      8.22707321	      4.49747738	      2.24560717	      8.79812089	     11.08406612	      2.71646102	      1.98530152	     15.34909875	      3.85225984	      7.56318696	     10.78008769	      8.42361105	      2.31952901	      7.58984191	      5.69461611	      6.09599554	      2.67190447	      3.19297371	      3.21042549	      8.80631737	      4.10567886	      7.73368920	      7.25200538	      1.52712174	      5.64221075	      0.00000000	      2.93368408	      2.46642678	      4.01032735	      4.11116329	      2.24970233	      1.56640145	      3.67468310	      5.58436968	      4.16898058	     22.69993471	     13.02569528	      3.64474868	      2.86277470	      4.12396466	     10.73634738	      6.62703475	      7.60250226	      8.17452322	     14.10813628	      6.55085919	     31.34412953	     42.45993036	      2.75528490	      2.93511619	      8.50384256	      4.36527560	     12.52289898	      2.01501336	      5.31857879	      1.68966894	     25.12883574	     25.12883574	      9.04807605	      9.04807605	     26.84779326	     26.84779326	     34.35268334	     78.25294453	      6.21123505	     -4.54483995	      0.86318049	     14.40765609	    -34.35268334	    -78.25294453	     -6.21123505	      2.55853201	     -1.04270813	     -1.16011777	     42.34984629	     78.70553298	      6.01987286	     -0.78573539	     -0.95337474	     17.97516345	    -42.34984629	    -78.70553298	     -6.01987286	     -1.12463980	      0.73277519	     -1.65147966	     -1.33347302	    -10.92498505	      3.63673887	     -0.24096792	     -0.02960272	     -0.17750123	      1.33347302	     10.92498505	     -3.63673887	      1.69598938	      0.02434251	      0.69520794	      0.00000000	      0.00000000	      0.00000000	      0.00000000	      0.00000000	      0.00000000	      0.00000000	      0.00000000	      0.00000000	      0.00000000	      0.00000000	      0.00000000	     19.67093421	     42.62416625	      0.00000000	      0.00000000	      0.00000000	      2.53110654	     42.69034653	      0.48481676	      0.00000000	      0.74714882	      0.00000000	      0.00000000	      0.00000001	      0.00000000	    110.00000000	      0.00000000	      0.00000000
      0.51253731	      7.58846448	      5.69366721	      6.09496716	      2.67147813	      3.19251254	      3.20984404	      8.67639891	      4.09838064	      7.84376173	      7.28968012	      0.00000000	      5.64125962	      0.00000000	      2.93319883	      2.46600909	      4.00957500	      3.91921027	      2.24934109	      1.56218698	      3.67407130	      5.58343709	      4.16827159	     22.69821414	     13.02376040	      3.64415446	      2.86249656	      4.12285790	     10.73164736	      6.57198348	      6.65627891	      8.23114331	      4.53144324	      2.26510309	      8.85667369	     11.11381180	      2.71817506	      1.95935464	     15.35942727	      3.85439401	      7.59054225	     10.78800078	      8.52406700	      2.33250881	      7.58846448	      5.69366721	      6.09496716	      2.67147813	      3.19251254	      3.20984404	      8.80431083	      4.10494088	      7.73201978	      7.25082234	      1.52687917	      5.64125962	      0.00000000	      2.93319883	      2.46600909	      4.00957500	      4.11069800	      2.24934109	      1.56614833	      3.67407130	      5.58343709	      4.16827159	     22.69821414	     13.02376040	      3.64415446	      2.86249656	      4.12285790	     10.73407533	      6.62590529	      7.60118152	      8.17311032	     14.10320044	      6.54856366	     31.33573835	     42.45664514	      2.75329946	      2.93375895	      8.50213292	      4.36425101	     12.52042817	      2.01471320	      5.31803032	      1.68951466	     25.12481698	     25.12481698	      9.04650022	      9.04650022	     26.84637777	     26.84637777	     34.34286109	     78.10540395	      6.20575642	     -4.53869551	      0.86283410	     14.40300755	    -34.34286109	    -78.10540395	     -6.20575642	      2.55364541	     -1.04227111	     -1.15928754	     42.28820533	     78.78708209	      5.98706651	     -0.77032661	     -0.95261007	     17.94912136	    -42.28820533	    -78.78708209	     -5.98706651	     -1.12710137	      0.73238879	     -1.64908259	     -1.32767341	    -10.86472307	      3.61687670	     -0.23965681	     -0.02942306	     -0.17657391	      1.32767341	     10.86472307	     -3.61687670	      1.68671788	      0.02418592	      0.69202537	      0.00000000	      0.00000000	      0.00000000	      0.00000000	      0.00000000	      0.00000000	      0.00000000	      0.00000000	      0.00000000	      0.00000000	      0.00000000	      0.00000000	     19.69812578	     42.66550427	      0.00000000	      0.00000000	      0.00000000	      2.52681181	     42.68714599	      0.43229697	      0.00000000	      0.69677685	      0.00000000	      0.00000000	      0.00000001	      0.00000000	    110.00000000	      0.00000000	      0.00000000
